<svg xmlns="http://www.w3.org/2000/svg" width="10" height="19">
    <path fill="#A7C363" fill-rule="evenodd" d="M9.623.004L7.224 0C4.53 0 2.789 1.835 2.789 4.676v2.156H.377A.382.382 0 0 0 0 7.219v3.124c0 .214.169.387.377.387h2.412v7.883c0 .214.168.387.377.387h3.146a.381.381 0 0 0 .377-.387V10.73h2.82a.382.382 0 0 0 .377-.387l.001-3.124a.398.398 0 0 0-.11-.274.376.376 0 0 0-.267-.113H6.689V5.004c0-.878.204-1.324 1.318-1.324l1.616-.001A.382.382 0 0 0 10 3.292V.391a.382.382 0 0 0-.377-.387z"/>
</svg>
