<svg xmlns="http://www.w3.org/2000/svg" width="131" height="137">
    <defs>
        <linearGradient id="a" x1="0%" x2="13.917%" y1="0%" y2="99.027%">
            <stop offset="0%" stop-color="#EF4E4E" stop-opacity=".3"/>
            <stop offset="100%" stop-color="#F0F3F5" stop-opacity=".3"/>
        </linearGradient>
    </defs>
    <path fill="#FF5D69" fill-opacity=".259" fill-rule="evenodd" d="M125.351 136.764v-8.588c0-12.815-10.679-17.669-11.414-17.987l-20.327-7.945-8.922 18.049a4.951 4.951 0 0 1-4.435 2.768c-1.821 0-2.791-.869-4.052-1.773l-2.279 3.463 2.015 12.013h-5.741l-1.643-9.796h-5.309l-1.643 9.796h-5.738l2.015-12.013-2.28-3.463c-1.278.917-2.24 1.773-4.051 1.773a4.95 4.95 0 0 1-4.435-2.768l-8.924-18.05-20.311 7.947c-.66.285-11.41 5.127-11.41 17.986v8.588H.807v-8.588c0-16.886 14.325-23.024 14.935-23.277l.053-.021 33.794-13.223V84.07c-5.831-4.274-9.665-10.76-10.608-18.026-2.678-.191-5.163-1.2-7.192-2.961a12.151 12.151 0 0 1-4.172-9.188c0-2.821 1.028-5.482 2.918-7.643V35.395C30.535 15.878 46.267 0 65.604 0c19.337 0 35.069 15.878 35.07 35.395v10.579a12.178 12.178 0 0 1 2.919 7.922c0 3.536-1.522 6.885-4.173 9.187-2.03 1.761-4.516 2.771-7.195 2.962a26.81 26.81 0 0 1-10.034 17.602v8.008l33.83 13.223.054.022c.61.253 14.935 6.391 14.935 23.276v8.588h-5.659zm-62.98-15.507h7.056l2.157-3.278-5.685-4.075-5.686 4.075 2.158 3.278zM76.531 92.6v-5.547a26.354 26.354 0 0 1-10.583 2.226c-3.588 0-7.262-.648-10.7-2.047v5.345l10.651 13.268L76.531 92.6zm-33.043 7.572l8.319 16.827 9.992-7.163-10.277-12.804-8.034 3.14zM38.747 60.27V47.666c-2.963.691-5.471 3.176-5.471 6.229 0 3.092 2.182 5.836 5.471 6.375zm53.715 0a6.563 6.563 0 0 0 3.268-1.518 6.42 6.42 0 0 0 2.203-4.856c0-3.118-2.218-5.84-5.471-6.373V60.27zm.001-18.502c.875.078 1.729.245 2.551.497v-6.87c0-16.367-13.193-29.683-29.41-29.683S36.195 19.028 36.195 35.395v7.067c.77-.265 1.803-.511 2.704-.615.596-2.392 2.813-4.01 5.247-3.826 11.096.804 23.122-2.461 32.981-8.96a4.998 4.998 0 0 1 6.427.791c8.933 9.692 8.909 9.16 8.909 11.916zm-5.66 20.75v-20.73c-.715-.885-2.934-3.214-7.03-7.653-10.346 6.687-23.152 10.349-35.366 9.627v18.757c0 10.947 8.64 21.048 21.541 21.047 11.489 0 20.855-9.454 20.855-21.048zm-6.541 34.509l-10.275 12.801a42435.4 42435.4 0 0 1 10.004 7.171l8.319-16.827-8.048-3.145zm25.486 33.125c1.563 0 2.83 1.279 2.83 2.856v3.756h-5.659v-3.756c0-1.577 1.267-2.856 2.829-2.856zm-79.677 0c1.563 0 2.83 1.279 2.83 2.856v3.756h-5.66v-3.756c0-1.577 1.267-2.856 2.83-2.856z"/>
    <path fill="url(#a)" d="M125.351 136.764v-8.588c0-12.815-10.679-17.669-11.414-17.987l-20.327-7.945-8.922 18.049a4.951 4.951 0 0 1-4.435 2.768c-1.821 0-2.791-.869-4.052-1.773l-2.279 3.463 2.015 12.013h-5.741l-1.643-9.796h-5.309l-1.643 9.796h-5.738l2.015-12.013-2.28-3.463c-1.278.917-2.24 1.773-4.051 1.773a4.95 4.95 0 0 1-4.435-2.768l-8.924-18.05-20.311 7.947c-.66.285-11.41 5.127-11.41 17.986v8.588H.807v-8.588c0-16.886 14.325-23.024 14.935-23.277l.053-.021 33.794-13.223V84.07c-5.831-4.274-9.665-10.76-10.608-18.026-2.678-.191-5.163-1.2-7.192-2.961a12.151 12.151 0 0 1-4.172-9.188c0-2.821 1.028-5.482 2.918-7.643V35.395C30.535 15.878 46.267 0 65.604 0c19.337 0 35.069 15.878 35.07 35.395v10.579a12.178 12.178 0 0 1 2.919 7.922c0 3.536-1.522 6.885-4.173 9.187-2.03 1.761-4.516 2.771-7.195 2.962a26.81 26.81 0 0 1-10.034 17.602v8.008l33.83 13.223.054.022c.61.253 14.935 6.391 14.935 23.276v8.588h-5.659zm-62.98-15.507h7.056l2.157-3.278-5.685-4.075-5.686 4.075 2.158 3.278zM76.531 92.6v-5.547a26.354 26.354 0 0 1-10.583 2.226c-3.588 0-7.262-.648-10.7-2.047v5.345l10.651 13.268L76.531 92.6zm-33.043 7.572l8.319 16.827 9.992-7.163-10.277-12.804-8.034 3.14zM38.747 60.27V47.666c-2.963.691-5.471 3.176-5.471 6.229 0 3.092 2.182 5.836 5.471 6.375zm53.715 0a6.563 6.563 0 0 0 3.268-1.518 6.42 6.42 0 0 0 2.203-4.856c0-3.118-2.218-5.84-5.471-6.373V60.27zm.001-18.502c.875.078 1.729.245 2.551.497v-6.87c0-16.367-13.193-29.683-29.41-29.683S36.195 19.028 36.195 35.395v7.067c.77-.265 1.803-.511 2.704-.615.596-2.392 2.813-4.01 5.247-3.826 11.096.804 23.122-2.461 32.981-8.96a4.998 4.998 0 0 1 6.427.791c8.933 9.692 8.909 9.16 8.909 11.916zm-5.66 20.75v-20.73c-.715-.885-2.934-3.214-7.03-7.653-10.346 6.687-23.152 10.349-35.366 9.627v18.757c0 10.947 8.64 21.048 21.541 21.047 11.489 0 20.855-9.454 20.855-21.048zm-6.541 34.509l-10.275 12.801a42435.4 42435.4 0 0 1 10.004 7.171l8.319-16.827-8.048-3.145zm25.486 33.125c1.563 0 2.83 1.279 2.83 2.856v3.756h-5.659v-3.756c0-1.577 1.267-2.856 2.829-2.856zm-79.677 0c1.563 0 2.83 1.279 2.83 2.856v3.756h-5.66v-3.756c0-1.577 1.267-2.856 2.83-2.856z"/>
</svg>
