<svg xmlns="http://www.w3.org/2000/svg" width="21" height="17">
    <path fill="#A7C363" fill-rule="evenodd" d="M21 2.012a8.661 8.661 0 0 1-2.475.676A4.313 4.313 0 0 0 20.42.313a8.665 8.665 0 0 1-2.736 1.042 4.312 4.312 0 0 0-3.145-1.356 4.3 4.3 0 0 0-4.197 5.27A12.246 12.246 0 0 1 1.462.785a4.285 4.285 0 0 0 1.333 5.73 4.293 4.293 0 0 1-1.951-.537l-.001.054A4.3 4.3 0 0 0 4.3 10.241a4.343 4.343 0 0 1-1.946.073 4.31 4.31 0 0 0 4.024 2.981 8.664 8.664 0 0 1-5.35 1.837c-.348 0-.691-.02-1.028-.06A12.224 12.224 0 0 0 6.604 17c7.925 0 12.258-6.54 12.258-12.211 0-.186-.004-.371-.012-.555A8.75 8.75 0 0 0 21 2.012z"/>
</svg>
