<svg xmlns="http://www.w3.org/2000/svg" width="21" height="21">
    <path fill="#235A90" fill-rule="evenodd" d="M20.787 20.372a.74.74 0 0 1-.512.211.704.704 0 0 1-.51-.211l-6.166-6.166a7.795 7.795 0 0 1-5.073 1.85c-4.368 0-7.944-3.559-7.944-7.945C.582 3.742 4.158.166 8.526.166a7.946 7.946 0 0 1 7.944 7.945 7.93 7.93 0 0 1-1.849 5.073l6.166 6.166a.725.725 0 0 1 0 1.022zM15.026 8.111c0-3.576-2.906-6.5-6.5-6.5-3.575 0-6.5 2.924-6.5 6.5s2.907 6.5 6.5 6.5c3.594 0 6.5-2.906 6.5-6.5zm-5.778 4.704a.714.714 0 0 1-.722.722.715.715 0 0 1-.722-.722V8.833H3.823a.714.714 0 0 1-.722-.722c0-.405.316-.722.722-.722h3.981V3.408c0-.405.317-.723.722-.723.406 0 .722.318.722.723v3.981h3.981c.406 0 .722.317.722.722a.714.714 0 0 1-.722.722H9.248v3.982z"/>
</svg>
